<svg width="20" height="20" viewBox="0 0 20 20" fill="none" xmlns="http://www.w3.org/2000/svg">
    <g>
        <path d="M0 3.75C0 3.34.34 3 .75 3h11.5c.41 0 .75.34.75.75V6h2.75q.31 0 .53.22l3.5 3.5q.22.22.22.53v4.5c0 .41-.34.75-.75.75h-1.8a2.5 2.5 0 0 1-4.9 0h-5.1a2.5 2.5 0 0 1-4.9 0A2.75 2.75 0 0 1 0 12.74zM18.5 14v-3.44L15.44 7.5H13v3.25a.75.75 0 0 1-1.5 0V4.5h-10v8.25c0 .68.54 1.23 1.2 1.25a2.5 2.5 0 0 1 4.6 0h5.4a2.5 2.5 0 0 1 4.6 0zM4 15a1 1 0 1 0 2 0 1 1 0 0 0-2 0m10 0a1 1 0 1 0 2 0 1 1 0 0 0-2 0" fill="black"/>
    </g>
</svg>
