<svg width="20" height="20" viewBox="0 0 20 20" fill="none" xmlns="http://www.w3.org/2000/svg">
    <path d="M8.1 11c.5.06.9.48.9 1v5.1a1 1 0 0 1-.9.9H2.9a1 1 0 0 1-.9-.9V12a1 1 0 0 1 .9-1h5.2m9 0c.5.06.9.48.9 1v5.1a1 1 0 0 1-.9.9h-5.2a1 1 0 0 1-.9-.9V12a1 1 0 0 1 .9-1h5.2M3.6 16.4h3.8v-3.8H3.6zm9 0h3.8v-3.8h-3.8zM8.1 2c.5.06.9.48.9 1v5.1a1 1 0 0 1-.9.9H2.9a1 1 0 0 1-.9-.9V3a1 1 0 0 1 .9-1h5.2m9 0c.5.06.9.48.9 1v5.1a1 1 0 0 1-.9.9h-5.2a1 1 0 0 1-.9-.9V3a1 1 0 0 1 .9-1h5.2M3.6 7.4h3.8V3.6H3.6zm9 0h3.8V3.6h-3.8z" fill="black"/>
</svg>
