<svg width="36" height="36" fill="none" xmlns="http://www.w3.org/2000/svg"><rect width="36" height="36" rx="12" fill="#000"/><path d="M8.98 8a1 1 0 0 0-.72.3 1.06 1.06 0 0 0-.29.75c0 .27.1.54.3.73.19.2.44.31.7.31.28 0 .53-.11.72-.3a1.06 1.06 0 0 0 0-1.48.99.99 0 0 0-.71-.31Zm18.04 0a1 1 0 0 0-.71.3 1.06 1.06 0 0 0-.3.75c0 .27.1.54.3.73.19.2.44.31.71.31.27 0 .53-.11.71-.3a1.06 1.06 0 0 0 0-1.48.99.99 0 0 0-.71-.31Z" fill="#575757"/><path d="M8.97 8.84c-.35.02-.33.53-.33.53 1.88 3.67 5.34 5.48 9.34 5.48 3.99-.01 7.48-1.83 9.36-5.5 0 0 .08-.7-.65-.46a10.16 10.16 0 0 1-8.7 5.11 10.1 10.1 0 0 1-8.71-5.09.64.64 0 0 0-.3-.07ZM21.7 20.5l-1.07 3.2-1.04-3.2h-1.02l1.64 4.65h.8l1.07-3.06 1.07 3.06h.8l1.64-4.65h-1l-1.04 3.2-1.07-3.2h-.78Zm-5.68 0-2.08 4.64h.98l.4-.9.03-.06h2.15l.43.97h1l-2.06-4.62-.02-.03h-.83Zm15.04 0v4.64H32v-4.64h-.94ZM4 20.5v4.65h.96v-1.89h2.16v1.89h.95v-4.65h-.95v1.87H4.96v-1.87H4Zm8.5 0v2.66c0 .76-.38 1.16-1.07 1.16-.7 0-1.08-.41-1.08-1.19v-2.63h-.96v2.66c0 1.31.74 2.06 2.02 2.06 1.3 0 2.05-.76 2.05-2.1v-2.62h-.96Zm13.86 0v4.65h3.56v-.85H27.3v-1.15h1.74v-.85H27.3v-.95h2.53v-.85h-3.47Zm-9.94 1.17.69 1.56.04.1h-1.44l.04-.1.67-1.56Z" fill="#fff"/></svg>
