<?xml version="1.0" encoding="UTF-8"?>
<svg id="_Слой_1" data-name="Слой_1" xmlns="http://www.w3.org/2000/svg" version="1.1" viewBox="0 0 100 100">
  <!-- Generator: Adobe Illustrator 29.8.2, SVG Export Plug-In . SVG Version: 2.1.1 Build 3)  -->
  <defs>
    <style>
      .st0 {
        fill: #00b2aa;
      }

      .st1 {
        fill: #efd126;
      }
    </style>
  </defs>
  <path class="st0" d="M18.12,21.72h-5.05v-2.16h5.05v2.16ZM13.07,9.25h-2.02v12.47h2.02v-12.47Z"/>
  <g>
    <path class="st0" d="M20.57,11.73c.74,0,1.34-.6,1.34-1.34s-.6-1.34-1.34-1.34-1.34.6-1.34,1.34.6,1.34,1.34,1.34Z"/>
    <rect class="st0" x="19.55" y="12.64" width="2.02" height="9.08"/>
  </g>
  <path class="st0" d="M31.77,16.16c-.18-4.81-5.71-3.94-6.21-2.42v-1.1h-2.02v9.08h2.02v-5.82c0-2.15,3.02-2.33,3.87-.75.13.24.32.72.32,2.17,0,0,0,0,0,0v4.39h2.02v-5.55h0Z"/>
  <polygon class="st0" points="41.5 21.71 37.34 16.86 41.14 12.76 38.83 12.76 35.4 16.6 35.4 9.35 33.38 9.35 33.38 21.71 35.4 21.71 35.4 17.35 39.09 21.71 41.5 21.71"/>
  <path class="st0" d="M58.24,12.73s-.03-.04-.68-.02c-.7.02-1.26.26-1.26.26-.61.27-1.07.75-1.08,1.2v-1.47h-2.02v9.08h2.02v-5.57s.11-.87.98-1.35c.87-.47,2.03-.01,2.03-.01v-2.11Z"/>
  <path class="st0" d="M66.32,12.7v1.47c-.77-1.03-1.91-1.7-3.2-1.7-2.33,0-4.21,2.14-4.21,4.77s1.89,4.77,4.21,4.77c1.29,0,2.43-.67,3.2-1.7v1.47h2.02v-9.08h-2.02ZM63.59,20.43c-1.51,0-2.73-1.42-2.73-3.17s1.22-3.17,2.73-3.17,2.73,1.42,2.73,3.17-1.22,3.17-2.73,3.17Z"/>
  <path class="st0" d="M79.19,19.87v1.9h-9.08v-1.9l5.64-4.96c3.16-3.18-3.25-5.68-3.72-1.57l-1.92-.88c.71-2.9,3.62-4,6.3-2.91,2.51,1.14,3.02,4.33,1.05,6.26l-4.28,4.06h6.01Z"/>
  <path class="st0" d="M90.09,17.65h-1.3v-8.08h-3.05l-5.4,8.08v1.74h6.43v2.38h2.02v-2.38h1.3v-1.74ZM82.55,17.65l3.96-6.21h.24v6.21h-4.21Z"/>
  <path class="st1" d="M51.83,26.18l-1.84.98s.27,3.62-3.57,3.86c-1.24.08-3.31-1.34-3.11-3.86.05-.58.3-1.39.64-1.91.8-1.23,1.49-1.85,2.82-2.7.32-.2,1.11-.67,1.11-.67,2.06-.9,3.74-2.68,3.74-5.11,0-2.96-2.33-5.36-5.21-5.36s-5.21,2.4-5.21,5.36c0,2.29,1.4,4.25,3.37,5.01,0,0-3.38,2.3-3.37,6.16,0,2.36,1.57,4.94,5.28,4.94,6.26,0,5.33-6.7,5.33-6.7ZM43.37,16.82c0-1.85,1.42-3.35,3.18-3.35s3.18,1.5,3.18,3.35-1.42,3.35-3.18,3.35-3.18-1.5-3.18-3.35Z"/>
  <circle class="st0" cx="49.69" cy="24.6" r="1.57"/>
</svg>