<?xml version="1.0" encoding="UTF-8"?>
<svg id="_Слой_2" data-name="Слой 2" xmlns="http://www.w3.org/2000/svg" viewBox="0 0 79.04 23.83">
  <defs>
    <style>
      .cls-1 {
        fill: #00b2aa;
      }

      .cls-2 {
        fill: #efd126;
      }
    </style>
  </defs>
  <g id="_Слой_1-2" data-name="Слой 1">
    <path class="cls-1" d="M7.08,12.66H2.02v-2.16h5.05v2.16ZM2.02.2H0v12.47h2.02V.2Z"/>
    <g>
      <path class="cls-1" d="M9.52,2.67c.74,0,1.34-.6,1.34-1.34s-.6-1.34-1.34-1.34-1.34.6-1.34,1.34.6,1.34,1.34,1.34Z"/>
      <rect class="cls-1" x="8.51" y="3.59" width="2.02" height="9.08"/>
    </g>
    <path class="cls-1" d="M20.72,7.11c-.18-4.81-5.71-3.94-6.21-2.42v-1.1h-2.02v9.08h2.02v-5.82c0-2.15,3.02-2.33,3.87-.75.13.24.32.72.32,2.17,0,0,0,0,0,0v4.39h2.02v-5.55h0Z"/>
    <polygon class="cls-1" points="30.46 12.66 26.3 7.81 30.1 3.7 27.78 3.7 24.36 7.54 24.36 .29 22.34 .29 22.34 12.66 24.36 12.66 24.36 8.29 28.04 12.66 30.46 12.66"/>
    <path class="cls-1" d="M47.2,3.67s-.03-.04-.68-.02c-.7.02-1.26.26-1.26.26-.61.27-1.07.75-1.08,1.2v-1.47h-2.02v9.08h2.02v-5.57s.11-.87.98-1.35c.87-.47,2.03-.01,2.03-.01v-2.11Z"/>
    <path class="cls-1" d="M55.27,3.64v1.47c-.77-1.03-1.91-1.7-3.2-1.7-2.33,0-4.21,2.14-4.21,4.77s1.89,4.77,4.21,4.77c1.29,0,2.43-.67,3.2-1.7v1.47h2.02V3.64h-2.02ZM52.54,11.38c-1.51,0-2.73-1.42-2.73-3.17s1.22-3.17,2.73-3.17,2.73,1.42,2.73,3.17-1.22,3.17-2.73,3.17Z"/>
    <path class="cls-1" d="M62.14,10.82l4.28-4.06s1.06-1.09,1.15-2.1c.15-1.66-.19-2.19-.52-2.73-.32-.52-1.11-1.2-1.68-1.43-.57-.23-1.84-.43-2.46-.35-.56.07-1.08.07-2.14.7-1.7,1-1.7,2.57-1.7,2.57l1.92.88s.15-2.23,2.29-2.3c1.82-.06,2.23,1.25,2.26,1.77.07,1.25-.83,2.1-.83,2.1l-5.64,4.96v1.9h9.08v-1.9h-6.01Z"/>
    <path class="cls-1" d="M79.04,8.59h-1.3V.51h-3.05l-5.4,8.08v1.74h6.43v2.38h2.02v-2.38h1.3v-1.74ZM71.51,8.59l3.96-6.21h.24v6.21h-4.21Z"/>
    <path class="cls-2" d="M40.78,17.13l-1.84.98s.27,3.62-3.57,3.86c-1.24.08-3.31-1.34-3.11-3.86.05-.58.3-1.39.64-1.91.8-1.23,1.49-1.85,2.82-2.7.32-.2,1.11-.67,1.11-.67,2.06-.9,3.74-2.68,3.74-5.11,0-2.96-2.33-5.36-5.21-5.36s-5.21,2.4-5.21,5.36c0,2.29,1.4,4.25,3.37,5.01,0,0-3.38,2.3-3.37,6.16,0,2.36,1.57,4.94,5.28,4.94,6.26,0,5.33-6.7,5.33-6.7ZM32.32,7.77c0-1.85,1.42-3.35,3.18-3.35s3.18,1.5,3.18,3.35-1.42,3.35-3.18,3.35-3.18-1.5-3.18-3.35Z"/>
    <circle class="cls-1" cx="38.65" cy="15.55" r="1.57"/>
  </g>
</svg>