<svg width="20" height="20" viewBox="0 0 20 20" fill="none" xmlns="http://www.w3.org/2000/svg">
    <path d="m7.5 2.63.31-.67a.7.7 0 0 0-.59-.02zm0 12.43.28.68.46-.19v-.5zm5 2.32-.31.66q.3.15.6.02zm4.92-2.04-.28-.69zM2.68 17.05l.28.69zm14.65-14.1.28.67zM2.58 4.65l.28.68zm.28.68 4.92-2.03-.56-1.37L2.3 3.98zm3.9-2.71v12.43h1.48V2.63zm.46 11.75-4.83 2 .57 1.36 4.82-2zm-5.46-9.6v12.16h1.48V4.77zM7.2 3.28l5 2.32.62-1.34-5-2.31zm5.6 2.33 4.82-2-.57-1.36-4.82 2zm3.97-2.56v12.16h1.48V3.06zm.38 11.6-4.92 2.03.56 1.37 4.93-2.04zm-5.38-9.72v12.44h1.48V4.94zm1.05 11.77-5-2.32-.62 1.34 5 2.31zm3.95-1.49c0-.25.16-.47.38-.57l.57 1.37a.9.9 0 0 0 .53-.8zM2.4 16.37c.39-.16.85.11.85.57H1.76a.86.86 0 0 0 1.2.8zM17.61 3.62a.6.6 0 0 1-.85-.56h1.48a.86.86 0 0 0-1.2-.8zM2.3 3.98a.9.9 0 0 0-.54.8h1.48c0 .25-.16.47-.38.56z" fill="black"/>
</svg>
