<svg width="14" height="20" viewBox="0 0 14 20" fill="none" xmlns="http://www.w3.org/2000/svg">
    <path fill-rule="evenodd" clip-rule="evenodd" d="M6.71 4.6H6.5a5.5 5.5 0 1 0 3.36 9.85l2.65 2.64.98-.98-2.64-2.65A5.5 5.5 0 0 0 12 10.02c-.43.25-.93.32-1.4.23A4.1 4.1 0 1 1 6.65 6q-.12-.7.06-1.4" fill="black"/>
    <path fill-rule="evenodd" clip-rule="evenodd" d="M8.52 4.15c.67-.67 1.74-.7 2.44-.07a1.77 1.77 0 0 1 2.44 2.58l-2.02 2.01a.6.6 0 0 1-.84 0L8.52 6.66c-.69-.7-.69-1.82 0-2.51m1.79.66.65.58.65-.58a.8.8 0 0 1 1.1 1.16L10.96 7.7 9.21 5.97a.8.8 0 0 1 1.1-1.16" fill="black"/>
</svg>
